<?xml version="1.0" standalone="no"?>
<!DOCTYPE svg PUBLIC "-//W3C//DTD SVG 20010904//EN"
 "http://www.w3.org/TR/2001/REC-SVG-20010904/DTD/svg10.dtd">
<svg version="1.0" xmlns="http://www.w3.org/2000/svg"
 width="260.000000pt" height="260.000000pt" viewBox="0 0 260.000000 260.000000"
 preserveAspectRatio="xMidYMid meet">
<metadata>
Created by potrace 1.14, written by Peter Selinger 2001-2017
</metadata>
<g transform="translate(0.000000,260.000000) scale(0.100000,-0.100000)"
fill="#000000" stroke="none">
<path d="M0 1300 l0 -1300 1300 0 1300 0 0 1300 0 1300 -1300 0 -1300 0 0
-1300z m1902 501 c66 -26 132 -86 148 -138 7 -19 10 -65 8 -103 -4 -81 -36
-134 -104 -178 -50 -31 -53 -38 -21 -46 13 -3 44 -21 69 -40 61 -47 98 -121
98 -196 0 -153 -87 -249 -259 -286 -67 -14 -293 -19 -350 -8 l-31 7 0 498 0
499 23 5 c52 11 89 13 222 11 117 -2 149 -6 197 -25z m-761 -476 c93 -269 168
-496 169 -502 0 -9 -20 -13 -67 -13 l-68 0 -55 160 -55 160 -177 0 -177 0 -53
-160 -53 -160 -67 0 c-38 0 -68 1 -68 3 0 2 77 228 170 502 94 274 170 501
170 502 0 2 37 3 82 1 l82 -3 167 -490z"/>
<path d="M1618 1723 l-28 -4 0 -166 0 -165 98 4 c127 5 186 31 220 98 27 55
28 92 1 146 -28 59 -83 85 -187 89 -42 2 -89 1 -104 -2z"/>
<path d="M1590 1102 l0 -191 36 -7 c64 -12 174 4 234 34 44 21 60 36 78 72 49
99 18 195 -81 244 -51 25 -73 30 -163 34 l-104 5 0 -191z"/>
<path d="M880 1676 c0 -12 -115 -376 -137 -433 -4 -10 29 -13 145 -13 l150 0
-69 208 c-38 114 -69 215 -69 224 0 9 -4 20 -10 23 -5 3 -10 -1 -10 -9z"/>
</g>
</svg>
